# xmcd
#
# Track frame offsets:
#	150
#	16730
#	30552
#	45155
#	58867
#	75830
#	92597
#	106265
#	115205
#	127929
#	141995
#	154900
#	170627
#	182910
#	194415
#	210272
#	225342
#	241372
#	257832
#
# Disc length: 3593 seconds
#
# Revision: 1
# Processed by: cddbd v1.4PL0 Copyright (c) Steve Scherf et al.
# Submitted via: audiograbber 1.82.01
#
DISCID=ec0e0713
DTITLE=Various Artist - Music City USA
DYEAR=1996
DGENRE=Country
TTITLE0=The Highwaymen - It Is The Way It Is
TTITLE1=Hank Williams Jr. - I Ain´t Going Peacefully
TTITLE2=Lyle Lovett - She´s No Lady
TTITLE3=Dwight Yoakam - Little Sister
TTITLE4=Wynona - Tell Me Why
TTITLE5=Little Texas - Kick A Little
TTITLE6=Tim McGraw - Indian Outlaw
TTITLE7=Waylon Jennings - Kissing You Goodbye
TTITLE8=Hel Ketchum - Veil Of Tears
TTITLE9=Merle Heggard - Truck Drivers Blues
TTITLE10=Martin Delray feat. Johnny Cash - Get Rhythm
TTITLE11=Perfect Stranger - You Have The Right To Remain Silent
TTITLE12=Sawyer Brown - This Time
TTITLE13=Steve Earle - Mystery Train Part 2
TTITLE14=Jeff Carson - The Car
TTITLE15=Bellamy Brothers - Dancin Cowboys
TTITLE16=Randy Travis - For Ever And Ever, Amen
TTITLE17=The Forester Sisters - Letter Home
TTITLE18=Ray Griff - You Ring My Bell
EXTD=
EXTT0=
EXTT1=
EXTT2=
EXTT3=
EXTT4=
EXTT5=
EXTT6=
EXTT7=
EXTT8=
EXTT9=
EXTT10=
EXTT11=
EXTT12=
EXTT13=
EXTT14=
EXTT15=
EXTT16=
EXTT17=
EXTT18=
PLAYORDER=
